<svg xmlns="http://www.w3.org/2000/svg" viewBox="0 0 200 80" fill="none">
  <defs>
    <linearGradient id="hybeGradient" x1="0%" y1="0%" x2="100%" y2="100%">
      <stop offset="0%" style="stop-color:#7c3aed;stop-opacity:1" />
      <stop offset="100%" style="stop-color:#ec4899;stop-opacity:1" />
    </linearGradient>
  </defs>
  
  <!-- H -->
  <rect x="20" y="20" width="8" height="40" fill="url(#hybeGradient)"/>
  <rect x="40" y="20" width="8" height="40" fill="url(#hybeGradient)"/>
  <rect x="20" y="36" width="28" height="8" fill="url(#hybeGradient)"/>
  
  <!-- Y -->
  <rect x="60" y="20" width="8" height="16" fill="url(#hybeGradient)"/>
  <rect x="80" y="20" width="8" height="16" fill="url(#hybeGradient)"/>
  <rect x="68" y="36" width="12" height="8" fill="url(#hybeGradient)"/>
  <rect x="72" y="44" width="4" height="16" fill="url(#hybeGradient)"/>
  
  <!-- B -->
  <rect x="100" y="20" width="8" height="40" fill="url(#hybeGradient)"/>
  <rect x="108" y="20" width="16" height="8" fill="url(#hybeGradient)"/>
  <rect x="108" y="36" width="16" height="8" fill="url(#hybeGradient)"/>
  <rect x="108" y="52" width="16" height="8" fill="url(#hybeGradient)"/>
  <rect x="124" y="28" width="8" height="8" fill="url(#hybeGradient)"/>
  <rect x="124" y="44" width="8" height="8" fill="url(#hybeGradient)"/>
  
  <!-- E -->
  <rect x="144" y="20" width="8" height="40" fill="url(#hybeGradient)"/>
  <rect x="152" y="20" width="24" height="8" fill="url(#hybeGradient)"/>
  <rect x="152" y="36" width="20" height="8" fill="url(#hybeGradient)"/>
  <rect x="152" y="52" width="24" height="8" fill="url(#hybeGradient)"/>
</svg>
